<mxfile host="65bd71144e" modified="2020-11-24T07:23:48.842Z" agent="5.0 (Macintosh; Intel Mac OS X 10_15_7) AppleWebKit/537.36 (KHTML, like Gecko) Code/1.51.1 Chrome/83.0.4103.122 Electron/9.3.3 Safari/537.36" version="13.6.5" etag="FsWauFe9lCMTThUnduTX">
    <diagram id="t0mKR3eVerQ5UVNHFlCb" name="第 1 页">
        <mxGraphModel dx="898" dy="680" grid="1" gridSize="10" guides="1" tooltips="1" connect="1" arrows="1" fold="1" page="1" pageScale="1" pageWidth="827" pageHeight="1169" math="0" shadow="0">
            <root>
                <mxCell id="0"/>
                <mxCell id="1" parent="0"/>
                <mxCell id="2" value="前端" style="shape=umlLifeline;perimeter=lifelinePerimeter;whiteSpace=wrap;html=1;container=1;collapsible=0;recursiveResize=0;outlineConnect=0;" vertex="1" parent="1">
                    <mxGeometry x="240" y="40" width="80" height="440" as="geometry"/>
                </mxCell>
                <mxCell id="13" value="" style="html=1;points=[];perimeter=orthogonalPerimeter;" vertex="1" parent="2">
                    <mxGeometry x="35" y="215" width="10" height="150" as="geometry"/>
                </mxCell>
                <mxCell id="3" value="后端" style="shape=umlLifeline;perimeter=lifelinePerimeter;whiteSpace=wrap;html=1;container=1;collapsible=0;recursiveResize=0;outlineConnect=0;" vertex="1" parent="1">
                    <mxGeometry x="720" y="40" width="80" height="440" as="geometry"/>
                </mxCell>
                <mxCell id="4" value="" style="html=1;points=[];perimeter=orthogonalPerimeter;" vertex="1" parent="3">
                    <mxGeometry x="36" y="105" width="10" height="90" as="geometry"/>
                </mxCell>
                <mxCell id="14" value="" style="html=1;points=[];perimeter=orthogonalPerimeter;" vertex="1" parent="3">
                    <mxGeometry x="35" y="230" width="10" height="90" as="geometry"/>
                </mxCell>
                <mxCell id="5" value="浏览器" style="shape=umlLifeline;perimeter=lifelinePerimeter;whiteSpace=wrap;html=1;container=1;collapsible=0;recursiveResize=0;outlineConnect=0;" vertex="1" parent="1">
                    <mxGeometry x="80" y="40" width="80" height="440" as="geometry"/>
                </mxCell>
                <mxCell id="6" value="评分" style="html=1;verticalAlign=bottom;startArrow=oval;endArrow=block;startSize=8;" edge="1" parent="1" source="5" target="8">
                    <mxGeometry relative="1" as="geometry">
                        <mxPoint x="130" y="140" as="sourcePoint"/>
                        <Array as="points">
                            <mxPoint x="250.5" y="140"/>
                        </Array>
                    </mxGeometry>
                </mxCell>
                <mxCell id="7" value="POST /api/repo/&amp;lt;project&amp;gt;/&amp;lt;app&amp;gt;/merge-requests/&amp;lt;id&amp;gt;/notes" style="html=1;verticalAlign=bottom;startArrow=oval;startFill=1;endArrow=block;startSize=8;" edge="1" parent="1" source="8" target="11">
                    <mxGeometry width="60" relative="1" as="geometry">
                        <mxPoint x="330" y="310" as="sourcePoint"/>
                        <mxPoint x="460" y="190" as="targetPoint"/>
                        <Array as="points">
                            <mxPoint x="430" y="170"/>
                        </Array>
                    </mxGeometry>
                </mxCell>
                <mxCell id="8" value="" style="html=1;points=[];perimeter=orthogonalPerimeter;" vertex="1" parent="1">
                    <mxGeometry x="275" y="120" width="10" height="120" as="geometry"/>
                </mxCell>
                <mxCell id="9" value="success: true, 评分信息" style="html=1;verticalAlign=bottom;endArrow=open;dashed=1;endSize=8;entryX=1.1;entryY=0.817;entryDx=0;entryDy=0;entryPerimeter=0;exitX=0;exitY=0.79;exitDx=0;exitDy=0;exitPerimeter=0;" edge="1" parent="1" target="8" source="12">
                    <mxGeometry relative="1" as="geometry">
                        <mxPoint x="474" y="220" as="sourcePoint"/>
                        <mxPoint x="285" y="228" as="targetPoint"/>
                    </mxGeometry>
                </mxCell>
                <mxCell id="10" value="获取评分" style="html=1;verticalAlign=bottom;startArrow=oval;endArrow=block;startSize=8;" edge="1" parent="1" target="13">
                    <mxGeometry relative="1" as="geometry">
                        <mxPoint x="119.5" y="290" as="sourcePoint"/>
                        <Array as="points">
                            <mxPoint x="190" y="290"/>
                        </Array>
                    </mxGeometry>
                </mxCell>
                <mxCell id="11" value="接口" style="shape=umlLifeline;perimeter=lifelinePerimeter;whiteSpace=wrap;html=1;container=1;collapsible=0;recursiveResize=0;outlineConnect=0;" vertex="1" parent="1">
                    <mxGeometry x="560" y="40" width="80" height="440" as="geometry"/>
                </mxCell>
                <mxCell id="12" value="" style="html=1;points=[];perimeter=orthogonalPerimeter;" vertex="1" parent="11">
                    <mxGeometry x="35" y="100" width="10" height="100" as="geometry"/>
                </mxCell>
                <mxCell id="15" value="" style="html=1;points=[];perimeter=orthogonalPerimeter;" vertex="1" parent="11">
                    <mxGeometry x="35.5" y="230" width="10" height="120" as="geometry"/>
                </mxCell>
                <mxCell id="18" value="DATA" style="html=1;verticalAlign=bottom;endArrow=open;dashed=1;endSize=8;exitX=0;exitY=0.95;" edge="1" parent="11" source="14">
                    <mxGeometry relative="1" as="geometry">
                        <mxPoint x="40" y="315.4999999999999" as="targetPoint"/>
                    </mxGeometry>
                </mxCell>
                <mxCell id="19" value="检查数据完整性" style="html=1;verticalAlign=bottom;startArrow=oval;endArrow=block;startSize=8;exitX=1;exitY=0.41;exitDx=0;exitDy=0;exitPerimeter=0;" edge="1" parent="1" source="12" target="4">
                    <mxGeometry relative="1" as="geometry">
                        <mxPoint x="580" y="180" as="sourcePoint"/>
                    </mxGeometry>
                </mxCell>
                <mxCell id="20" value="data" style="html=1;verticalAlign=bottom;endArrow=open;dashed=1;endSize=8;exitX=-0.3;exitY=0.644;exitDx=0;exitDy=0;exitPerimeter=0;" edge="1" parent="1" source="4" target="12">
                    <mxGeometry relative="1" as="geometry">
                        <mxPoint x="630" y="270" as="sourcePoint"/>
                        <mxPoint x="630" y="203" as="targetPoint"/>
                    </mxGeometry>
                </mxCell>
                <mxCell id="21" value="success: true， merge信息" style="html=1;verticalAlign=bottom;endArrow=open;dashed=1;endSize=8;exitX=-0.25;exitY=0.85;exitDx=0;exitDy=0;exitPerimeter=0;entryX=1.3;entryY=0.78;entryDx=0;entryDy=0;entryPerimeter=0;" edge="1" parent="1" source="15" target="13">
                    <mxGeometry relative="1" as="geometry">
                        <mxPoint x="474.5" y="351" as="sourcePoint"/>
                        <mxPoint x="290" y="372" as="targetPoint"/>
                    </mxGeometry>
                </mxCell>
                <mxCell id="22" value="评分信息" style="html=1;verticalAlign=bottom;endArrow=open;dashed=1;endSize=8;exitX=0.1;exitY=0.9;exitDx=0;exitDy=0;exitPerimeter=0;" edge="1" parent="1" source="8" target="5">
                    <mxGeometry relative="1" as="geometry">
                        <mxPoint x="610" y="290" as="sourcePoint"/>
                        <mxPoint x="530" y="290" as="targetPoint"/>
                    </mxGeometry>
                </mxCell>
                <mxCell id="16" value="GET /api/repo/&amp;lt;project&amp;gt;/&amp;lt;app&amp;gt;/merge-requests/&amp;lt;id&amp;gt;" style="html=1;verticalAlign=bottom;startArrow=oval;endArrow=block;startSize=8;entryX=0.05;entryY=0.25;entryDx=0;entryDy=0;entryPerimeter=0;exitX=1.2;exitY=0.307;exitDx=0;exitDy=0;exitPerimeter=0;" edge="1" parent="1" target="15" source="13">
                    <mxGeometry relative="1" as="geometry">
                        <mxPoint x="368" y="301" as="sourcePoint"/>
                    </mxGeometry>
                </mxCell>
                <mxCell id="32" value="评分信息" style="html=1;verticalAlign=bottom;endArrow=open;dashed=1;endSize=8;exitX=0.1;exitY=0.9;exitDx=0;exitDy=0;exitPerimeter=0;" edge="1" parent="1">
                    <mxGeometry relative="1" as="geometry">
                        <mxPoint x="275" y="390" as="sourcePoint"/>
                        <mxPoint x="118.5" y="390" as="targetPoint"/>
                    </mxGeometry>
                </mxCell>
                <mxCell id="17" value="检查数据完整性" style="html=1;verticalAlign=bottom;endArrow=block;" edge="1" parent="1" source="15" target="14">
                    <mxGeometry relative="1" as="geometry">
                        <mxPoint x="630.5" y="280" as="sourcePoint"/>
                        <mxPoint x="730" y="320" as="targetPoint"/>
                    </mxGeometry>
                </mxCell>
            </root>
        </mxGraphModel>
    </diagram>
</mxfile>